<svg width="373" height="86" viewBox="0 0 373 86" fill="none" xmlns="http://www.w3.org/2000/svg">
<path d="M12.8345 39.9846L1.53491 63.5227C1.22975 64.1584 1.44799 64.9218 2.04301 65.3001L19.9738 76.7013L29.1743 82.5652L30.4653 83.3835L31.5354 84.063C31.9919 84.3528 32.5749 84.3522 33.0307 84.0613L34.0928 83.3835L35.3565 82.5834L44.5661 76.7195L62.4602 65.3191C63.0668 64.9326 63.2792 64.1477 62.9502 63.508L50.5483 39.394" stroke="white" stroke-width="2.01712"/>
<path d="M41.7627 61.7938L39.8388 37.1714M24.7997 37.8124L22.1141 61.3516" stroke="white" stroke-width="2.01712"/>
<path d="M36.4567 65.2131L35.8669 58.5224C35.6861 56.4723 33.9691 54.8999 31.9109 54.8999V54.8999C29.8528 54.8999 28.1358 56.4723 27.955 58.5224L27.3652 65.2131" stroke="white" stroke-width="2.01712"/>
<path d="M26.9105 24.4435L12.9845 14.0044L14.4069 2.51856L31.911 19.4432" stroke="white" stroke-width="2.01712"/>
<path d="M31.6731 18.9673L42.9824 5.86597L54.4683 7.28834L37.3656 23.9885" stroke="white" stroke-width="2.01712"/>
<path d="M37.3657 23.534L51.1946 35.2099L49.7722 46.6958L31.9108 28.9889" stroke="white" stroke-width="2.01712"/>
<path d="M31.9109 28.9891L21.167 42.0356L9.68118 40.6132L27.3651 23.5342" stroke="white" stroke-width="2.01712"/>
<ellipse cx="32.0646" cy="23.9912" rx="4.90266" ry="4.90266" transform="rotate(16.6967 32.0646 23.9912)" stroke="white" stroke-width="2.01712"/>
<path d="M1.70038 64.3444C5.17051 61.59 9.56084 59.9448 14.3354 59.9448C21.8638 59.9448 28.4369 64.035 31.9537 70.1145" stroke="white" stroke-width="2.01544"/>
<path d="M5.7066 67.5163C8.16852 65.8492 11.1382 64.8755 14.3354 64.8755C21.6807 64.8755 27.8255 70.0151 29.3699 76.8942" stroke="white" stroke-width="2.01544"/>
<path d="M24.8133 80.284C24.8133 74.4972 20.1222 69.8062 14.3354 69.8062C13.0337 69.8062 11.7873 70.0436 10.6374 70.4774" stroke="white" stroke-width="2.01544"/>
<path d="M29.2094 82.4413C29.1553 81.8322 29.1277 81.2155 29.1277 80.5923C29.1277 69.189 38.3719 59.9448 49.7752 59.9448C54.8191 59.9448 59.4406 61.7534 63.0266 64.7575" stroke="white" stroke-width="2.01544"/>
<path d="M34.2507 83.0576C34.1241 82.2544 34.0584 81.431 34.0584 80.5922C34.0584 71.9121 41.095 64.8755 49.7752 64.8755C53.087 64.8755 56.1596 65.8999 58.6934 67.649" stroke="white" stroke-width="2.01544"/>
<path d="M38.9891 80.5922C38.9891 74.6352 43.8182 69.8062 49.7751 69.8062C51.3329 69.8062 52.8135 70.1364 54.1509 70.7307" stroke="white" stroke-width="2.01544"/>
<path d="M87.5308 56.8491V28.6091H93.8108V56.8491H87.5308ZM92.3308 56.8491V51.4091H107.811V56.8491H92.3308ZM92.3308 45.0491V39.8091H106.411V45.0491H92.3308ZM92.3308 34.0091V28.6091H107.611V34.0091H92.3308Z" fill="white"/>
<path d="M118.201 56.8491V29.0091H124.481V56.8491H118.201ZM109.361 34.0891V28.6091H133.321V34.0891H109.361Z" fill="white"/>
<path d="M136.828 56.8491V28.6091H143.108V56.8491H136.828ZM154.308 56.8491V28.6091H160.628V56.8491H154.308ZM140.588 45.0491V39.6091H156.388V45.0491H140.588Z" fill="white"/>
<path d="M164.566 56.8491L175.926 29.0891H178.646L189.966 56.8491H185.886L176.566 33.3691H177.966L168.566 56.8491H164.566ZM169.966 50.5691V47.2891H184.566V50.5691H169.966Z" fill="white"/>
<path d="M193.818 56.8491V37.8491H197.418V56.8491H193.818ZM206.658 56.8491V45.3691C206.658 43.9557 206.218 42.8491 205.338 42.0491C204.485 41.2224 203.405 40.8091 202.098 40.8091C201.218 40.8091 200.431 40.9957 199.738 41.3691C199.045 41.7424 198.485 42.2624 198.058 42.9291C197.631 43.5957 197.418 44.3957 197.418 45.3291L195.938 44.6091C195.938 43.1691 196.245 41.9157 196.858 40.8491C197.498 39.7824 198.365 38.9557 199.458 38.3691C200.551 37.7557 201.778 37.4491 203.138 37.4491C204.471 37.4491 205.671 37.7424 206.738 38.3291C207.831 38.9157 208.685 39.7424 209.298 40.8091C209.938 41.8757 210.258 43.1424 210.258 44.6091V56.8491H206.658ZM219.498 56.8491V45.3691C219.498 43.9557 219.058 42.8491 218.178 42.0491C217.325 41.2224 216.258 40.8091 214.978 40.8091C214.098 40.8091 213.298 40.9957 212.578 41.3691C211.885 41.7424 211.325 42.2624 210.898 42.9291C210.471 43.5957 210.258 44.3957 210.258 45.3291L208.218 44.6091C208.298 43.1424 208.685 41.8891 209.378 40.8491C210.098 39.7824 211.018 38.9557 212.138 38.3691C213.258 37.7557 214.485 37.4491 215.818 37.4491C217.205 37.4491 218.445 37.7424 219.538 38.3291C220.631 38.9157 221.498 39.7424 222.138 40.8091C222.805 41.8757 223.138 43.1557 223.138 44.6491V56.8491H219.498Z" fill="white"/>
<path d="M234.077 57.2491C233.01 57.2491 231.997 57.1157 231.037 56.8491C230.103 56.5557 229.237 56.1557 228.437 55.6491C227.637 55.1157 226.943 54.4891 226.357 53.7691L228.677 51.4491C229.37 52.3024 230.17 52.9424 231.077 53.3691C231.983 53.7691 232.997 53.9691 234.117 53.9691C235.237 53.9691 236.103 53.7824 236.717 53.4091C237.33 53.0091 237.637 52.4624 237.637 51.7691C237.637 51.0757 237.383 50.5424 236.877 50.1691C236.397 49.7691 235.77 49.4491 234.997 49.2091C234.223 48.9424 233.397 48.6891 232.517 48.4491C231.663 48.1824 230.85 47.8491 230.077 47.4491C229.303 47.0491 228.663 46.5024 228.157 45.8091C227.677 45.1157 227.437 44.1957 227.437 43.0491C227.437 41.9024 227.717 40.9157 228.277 40.0891C228.837 39.2357 229.61 38.5824 230.597 38.1291C231.61 37.6757 232.823 37.4491 234.237 37.4491C235.73 37.4491 237.05 37.7157 238.197 38.2491C239.37 38.7557 240.33 39.5291 241.077 40.5691L238.757 42.8891C238.223 42.1957 237.557 41.6624 236.757 41.2891C235.983 40.9157 235.103 40.7291 234.117 40.7291C233.077 40.7291 232.277 40.9157 231.717 41.2891C231.183 41.6357 230.917 42.1291 230.917 42.7691C230.917 43.4091 231.157 43.9024 231.637 44.2491C232.117 44.5957 232.743 44.8891 233.517 45.1291C234.317 45.3691 235.143 45.6224 235.997 45.8891C236.85 46.1291 237.663 46.4624 238.437 46.8891C239.21 47.3157 239.837 47.8891 240.317 48.6091C240.823 49.3291 241.077 50.2757 241.077 51.4491C241.077 53.2357 240.437 54.6491 239.157 55.6891C237.903 56.7291 236.21 57.2491 234.077 57.2491Z" fill="white"/>
<path d="M248.027 56.8491V29.8891H251.627V56.8491H248.027ZM243.347 41.1291V37.8491H256.307V41.1291H243.347Z" fill="white"/>
<path d="M268.048 57.2491C266.154 57.2491 264.448 56.8224 262.928 55.9691C261.408 55.0891 260.208 53.9024 259.328 52.4091C258.448 50.9157 258.008 49.2224 258.008 47.3291C258.008 45.4624 258.434 43.7824 259.288 42.2891C260.168 40.7957 261.341 39.6224 262.808 38.7691C264.301 37.8891 265.968 37.4491 267.808 37.4491C269.568 37.4491 271.114 37.8491 272.448 38.6491C273.808 39.4491 274.861 40.5557 275.608 41.9691C276.381 43.3824 276.768 44.9824 276.768 46.7691C276.768 47.0357 276.754 47.3291 276.728 47.6491C276.701 47.9424 276.648 48.2891 276.568 48.6891H260.528V45.6891H274.648L273.328 46.8491C273.328 45.5691 273.101 44.4891 272.648 43.6091C272.194 42.7024 271.554 42.0091 270.728 41.5291C269.901 41.0224 268.901 40.7691 267.728 40.7691C266.501 40.7691 265.421 41.0357 264.488 41.5691C263.554 42.1024 262.834 42.8491 262.328 43.8091C261.821 44.7691 261.568 45.9024 261.568 47.2091C261.568 48.5424 261.834 49.7157 262.368 50.7291C262.901 51.7157 263.661 52.4891 264.648 53.0491C265.634 53.5824 266.768 53.8491 268.048 53.8491C269.114 53.8491 270.088 53.6624 270.968 53.2891C271.874 52.9157 272.648 52.3557 273.288 51.6091L275.608 53.9691C274.701 55.0357 273.581 55.8491 272.248 56.4091C270.941 56.9691 269.541 57.2491 268.048 57.2491Z" fill="white"/>
<path d="M280.693 56.8491V37.8491H284.293V56.8491H280.693ZM284.293 46.0091L282.933 45.4091C282.933 42.9824 283.493 41.0491 284.613 39.6091C285.733 38.1691 287.346 37.4491 289.453 37.4491C290.413 37.4491 291.28 37.6224 292.053 37.9691C292.826 38.2891 293.546 38.8357 294.213 39.6091L291.853 42.0491C291.453 41.6224 291.013 41.3157 290.533 41.1291C290.053 40.9424 289.493 40.8491 288.853 40.8491C287.52 40.8491 286.426 41.2757 285.573 42.1291C284.72 42.9824 284.293 44.2757 284.293 46.0091Z" fill="white"/>
<path d="M304.163 57.2491C302.403 57.2491 300.829 56.8224 299.443 55.9691C298.056 55.0891 296.949 53.9024 296.123 52.4091C295.323 50.9157 294.923 49.2357 294.923 47.3691C294.923 45.5024 295.323 43.8224 296.123 42.3291C296.949 40.8357 298.056 39.6491 299.443 38.7691C300.829 37.8891 302.403 37.4491 304.163 37.4491C305.576 37.4491 306.856 37.7557 308.003 38.3691C309.149 38.9557 310.069 39.7824 310.763 40.8491C311.483 41.8891 311.883 43.1024 311.963 44.4891V50.2091C311.883 51.5691 311.496 52.7824 310.803 53.8491C310.109 54.9157 309.189 55.7557 308.043 56.3691C306.896 56.9557 305.603 57.2491 304.163 57.2491ZM304.763 53.8491C305.963 53.8491 307.003 53.5691 307.883 53.0091C308.789 52.4491 309.496 51.6891 310.003 50.7291C310.509 49.7424 310.763 48.6224 310.763 47.3691C310.763 46.0624 310.496 44.9291 309.963 43.9691C309.456 43.0091 308.749 42.2491 307.843 41.6891C306.963 41.1291 305.923 40.8491 304.723 40.8491C303.523 40.8491 302.469 41.1291 301.563 41.6891C300.656 42.2491 299.936 43.0224 299.403 44.0091C298.896 44.9691 298.643 46.0757 298.643 47.3291C298.643 48.6091 298.896 49.7424 299.403 50.7291C299.936 51.6891 300.656 52.4491 301.563 53.0091C302.496 53.5691 303.563 53.8491 304.763 53.8491ZM314.163 56.8491H310.523V51.7291L311.203 47.0891L310.523 42.4891V28.2891H314.163V56.8491Z" fill="white"/>
<path d="M327.484 57.2491C325.751 57.2491 324.177 56.8224 322.764 55.9691C321.351 55.0891 320.231 53.9024 319.404 52.4091C318.604 50.9157 318.204 49.2357 318.204 47.3691C318.204 45.5024 318.604 43.8224 319.404 42.3291C320.231 40.8357 321.337 39.6491 322.724 38.7691C324.137 37.8891 325.724 37.4491 327.484 37.4491C328.924 37.4491 330.204 37.7557 331.324 38.3691C332.471 38.9557 333.391 39.7824 334.084 40.8491C334.777 41.8891 335.164 43.1024 335.244 44.4891V50.2091C335.164 51.5691 334.777 52.7824 334.084 53.8491C333.417 54.9157 332.511 55.7557 331.364 56.3691C330.244 56.9557 328.951 57.2491 327.484 57.2491ZM328.084 53.8491C329.871 53.8491 331.311 53.2491 332.404 52.0491C333.497 50.8224 334.044 49.2624 334.044 47.3691C334.044 46.0624 333.791 44.9291 333.284 43.9691C332.804 42.9824 332.111 42.2224 331.204 41.6891C330.297 41.1291 329.244 40.8491 328.044 40.8491C326.844 40.8491 325.777 41.1291 324.844 41.6891C323.937 42.2491 323.217 43.0224 322.684 44.0091C322.177 44.9691 321.924 46.0757 321.924 47.3291C321.924 48.6091 322.177 49.7424 322.684 50.7291C323.217 51.6891 323.951 52.4491 324.884 53.0091C325.817 53.5691 326.884 53.8491 328.084 53.8491ZM333.804 56.8491V51.7291L334.484 47.0891L333.804 42.4891V37.8491H337.444V56.8491H333.804Z" fill="white"/>
<path d="M342.685 56.8491V37.8491H346.285V56.8491H342.685ZM355.525 56.8491V45.3691C355.525 43.9557 355.085 42.8491 354.205 42.0491C353.352 41.2224 352.272 40.8091 350.965 40.8091C350.085 40.8091 349.299 40.9957 348.605 41.3691C347.912 41.7424 347.352 42.2624 346.925 42.9291C346.499 43.5957 346.285 44.3957 346.285 45.3291L344.805 44.6091C344.805 43.1691 345.112 41.9157 345.725 40.8491C346.365 39.7824 347.232 38.9557 348.325 38.3691C349.419 37.7557 350.645 37.4491 352.005 37.4491C353.339 37.4491 354.539 37.7424 355.605 38.3291C356.699 38.9157 357.552 39.7424 358.165 40.8091C358.805 41.8757 359.125 43.1424 359.125 44.6091V56.8491H355.525ZM368.365 56.8491V45.3691C368.365 43.9557 367.925 42.8491 367.045 42.0491C366.192 41.2224 365.125 40.8091 363.845 40.8091C362.965 40.8091 362.165 40.9957 361.445 41.3691C360.752 41.7424 360.192 42.2624 359.765 42.9291C359.339 43.5957 359.125 44.3957 359.125 45.3291L357.085 44.6091C357.165 43.1424 357.552 41.8891 358.245 40.8491C358.965 39.7824 359.885 38.9557 361.005 38.3691C362.125 37.7557 363.352 37.4491 364.685 37.4491C366.072 37.4491 367.312 37.7424 368.405 38.3291C369.499 38.9157 370.365 39.7424 371.005 40.8091C371.672 41.8757 372.005 43.1557 372.005 44.6491V56.8491H368.365Z" fill="white"/>
</svg>
