<svg width="400" height="127" viewBox="0 0 400 127" fill="none" xmlns="http://www.w3.org/2000/svg">
<path d="M10.4 43.76L39.11 60.34L67.83 43.76L39.11 27.19L10.4 43.76Z" fill="#FFE9B5"/>
<path d="M5.62 52.05L39.11 71.39L72.61 52.05L39.11 32.71L5.62 52.05Z" fill="#FFE9B5"/>
<path d="M15.19 35.47L39.11 49.29L63.04 35.47L39.11 21.66L15.19 35.47Z" fill="#FFE9B5"/>
<path d="M19.97 27.19L39.11 38.24L58.25 27.19L39.11 16.13L19.97 27.19Z" fill="#FFE9B5"/>
<path d="M19.97 27.19V32.71L39.11 43.76V38.24L19.97 27.19Z" fill="#15362B"/>
<path d="M15.19 35.47V41L39.11 54.82V49.29L15.19 35.47Z" fill="#15362B"/>
<path d="M10.4 43.76V49.29L39.11 65.87V60.34L10.4 43.76Z" fill="#15362B"/>
<path d="M5.62 52.05V59.93L39.11 79.27V71.39L5.62 52.05Z" fill="#15362B"/>
<path d="M58.25 27.19V32.71L39.11 43.76V38.24L58.25 27.19Z" fill="#B90012"/>
<path d="M63.04 35.47V41L39.11 54.82V49.29L63.04 35.47Z" fill="#B90012"/>
<path d="M67.83 43.76V49.29L39.11 65.87V60.34L67.83 43.76Z" fill="#B90012"/>
<path d="M72.61 52.05V59.93L39.11 79.27V71.39L72.61 52.05Z" fill="#B90012"/>
<path d="M0.830002 65.87L39.11 126.66V87.97L0.830002 65.87Z" fill="#15362B"/>
<path d="M39.11 87.97L77.4 65.87L39.11 126.66V87.97Z" fill="#B90012"/>
<path d="M39.11 0.450012L25.35 24.03L39.11 32.16V0.450012Z" fill="#15362B"/>
<path d="M25.35 24.03L39.11 17.6V32.16L25.35 24.03Z" fill="#527F67"/>
<path d="M39.11 0.450012L52.87 24.03L39.11 32.16V0.450012Z" fill="#B90012"/>
<path d="M52.87 24.03L39.11 17.6V32.16L52.87 24.03Z" fill="#E99300"/>
<path d="M98.83 85.83V44.44H108.09V85.83H98.83ZM105.92 52.41V44.44H128.32V52.41H105.92ZM105.92 68.59V60.79H126.56V68.59H105.92ZM105.92 85.83V77.86H128.67V85.83H105.92Z" fill="#143E30"/>
<path d="M130.85 52.53V44.44H166.03V52.53H130.85ZM143.81 85.83V44.96H153.13V85.83H143.81Z" fill="#143E30"/>
<path d="M171.13 85.83V44.44H180.39V85.83H171.13ZM176.7 68.59V60.56H199.8V68.59H176.7ZM196.75 85.83V44.44H206.07V85.83H196.75Z" fill="#143E30"/>
<path d="M213.93 85.83V44.44H220.61L236.91 69.83H233.45L249.69 44.44H256.37V85.83H247.16V59.97L248.74 60.44L238.19 76.92H232.09L221.54 60.44L223.12 59.97V85.83H213.91H213.93Z" fill="#C10507"/>
<path d="M277.49 86.47C274.4 86.47 271.66 85.83 269.28 84.56C266.9 83.29 265.02 81.52 263.65 79.25C262.28 76.98 261.6 74.4 261.6 71.51C261.6 68.62 262.26 66.17 263.59 63.92C264.92 61.67 266.74 59.9 269.04 58.61C271.35 57.32 273.95 56.67 276.84 56.67C279.73 56.67 282.2 57.28 284.34 58.49C286.49 59.7 288.19 61.38 289.44 63.53C290.69 65.68 291.32 68.14 291.32 70.92C291.32 71.47 291.29 72.02 291.23 72.59C291.17 73.16 291.04 73.79 290.85 74.5L266.34 74.62V68.4L286.98 68.28L283.11 70.92C283.07 69.32 282.82 67.98 282.35 66.9C281.88 65.83 281.19 64.99 280.27 64.41C279.35 63.82 278.25 63.53 276.96 63.53C275.55 63.53 274.33 63.86 273.3 64.53C272.26 65.2 271.46 66.11 270.9 67.29C270.33 68.46 270.05 69.87 270.05 71.51C270.05 73.15 270.35 74.58 270.96 75.79C271.57 77 272.43 77.93 273.54 78.58C274.65 79.23 275.97 79.55 277.5 79.55C278.87 79.55 280.12 79.31 281.25 78.82C282.38 78.33 283.38 77.6 284.24 76.62L289.22 81.54C287.81 83.22 286.11 84.46 284.12 85.26C282.13 86.06 279.92 86.46 277.5 86.46L277.49 86.47Z" fill="#C10507"/>
<path d="M291.91 85.83L303.58 69.24L308.74 75.04L301.76 85.83H291.91ZM312.43 85.83L305.63 74.81L303.7 73.52L292.5 57.34H303L309.39 67.66L311.27 68.89L322.88 85.83H312.44H312.43ZM311.26 73.46L306.1 67.71L312.49 57.33H322.34L311.26 73.45V73.46Z" fill="#C10507"/>
<path d="M330.78 53.46C329.41 53.46 328.26 52.97 327.32 51.99C326.38 51.01 325.91 49.84 325.91 48.47C325.91 47.1 326.38 45.89 327.32 44.95C328.26 44.01 329.41 43.54 330.78 43.54C332.23 43.54 333.39 44.01 334.27 44.95C335.15 45.89 335.59 47.06 335.59 48.47C335.59 49.88 335.15 51.01 334.27 51.99C333.39 52.97 332.23 53.46 330.78 53.46ZM326.27 85.83V57.33H335.3V85.83H326.27Z" fill="#C10507"/>
<path d="M355.35 86.47C352.38 86.47 349.7 85.82 347.32 84.53C344.94 83.24 343.07 81.46 341.72 79.19C340.37 76.92 339.7 74.38 339.7 71.57C339.7 68.76 340.38 66.17 341.75 63.92C343.12 61.67 344.99 59.9 347.38 58.61C349.76 57.32 352.44 56.67 355.41 56.67C357.68 56.67 359.74 57.05 361.6 57.81C363.46 58.57 365.11 59.7 366.55 61.18L360.75 67.04C360.08 66.3 359.31 65.75 358.43 65.4C357.55 65.05 356.54 64.87 355.41 64.87C354.16 64.87 353.03 65.15 352.04 65.72C351.04 66.29 350.26 67.07 349.7 68.07C349.13 69.07 348.85 70.21 348.85 71.5C348.85 72.79 349.13 74 349.7 75.02C350.27 76.04 351.06 76.83 352.07 77.4C353.09 77.97 354.2 78.25 355.41 78.25C356.62 78.25 357.63 78.05 358.55 77.66C359.47 77.27 360.26 76.7 360.92 75.96L366.72 81.71C365.2 83.27 363.5 84.46 361.65 85.26C359.79 86.06 357.69 86.46 355.35 86.46V86.47Z" fill="#C10507"/>
<path d="M383.67 86.47C380.7 86.47 378.04 85.81 375.7 84.48C373.35 83.15 371.5 81.35 370.13 79.09C368.76 76.82 368.08 74.28 368.08 71.47C368.08 68.66 368.75 66.19 370.1 63.96C371.45 61.73 373.3 59.96 375.64 58.65C377.99 57.34 380.66 56.69 383.67 56.69C386.68 56.69 389.25 57.34 391.62 58.63C393.98 59.92 395.85 61.69 397.22 63.94C398.59 66.19 399.27 68.7 399.27 71.47C399.27 74.24 398.59 76.87 397.22 79.12C395.85 81.37 393.99 83.16 391.65 84.48C389.3 85.81 386.65 86.47 383.68 86.47H383.67ZM383.67 78.26C384.92 78.26 386.04 77.99 387.01 77.44C387.99 76.89 388.74 76.1 389.27 75.06C389.8 74.02 390.06 72.84 390.06 71.51C390.06 70.18 389.79 69.08 389.24 68.08C388.69 67.08 387.94 66.3 386.98 65.73C386.02 65.16 384.92 64.88 383.67 64.88C382.42 64.88 381.3 65.16 380.33 65.73C379.35 66.3 378.59 67.09 378.04 68.1C377.49 69.12 377.22 70.25 377.22 71.5C377.22 72.83 377.49 74.01 378.04 75.05C378.59 76.09 379.35 76.88 380.33 77.43C381.31 77.98 382.42 78.25 383.67 78.25V78.26Z" fill="#C10507"/>
</svg>
